<?xml version="1.0" encoding="UTF-8" standalone="no"?><svg xmlns="http://www.w3.org/2000/svg" xmlns:xlink="http://www.w3.org/1999/xlink" contentStyleType="text/css" height="671px" preserveAspectRatio="none" style="width:1726px;height:671px;background:#FFFFFF;" version="1.1" viewBox="0 0 1726 671" width="1726px" zoomAndPan="magnify"><defs/><g><rect fill="none" height="75.9316" style="stroke:#000000;stroke-width:1.5;" width="808" x="244" y="112.1094"/><rect fill="none" height="75.9316" style="stroke:#000000;stroke-width:1.5;" width="486.5" x="565.5" y="202.041"/><rect fill="none" height="75.9316" style="stroke:#000000;stroke-width:1.5;" width="899" x="244" y="291.9727"/><rect fill="none" height="75.9316" style="stroke:#000000;stroke-width:1.5;" width="577.5" x="565.5" y="381.9043"/><rect fill="none" height="59.6211" style="stroke:#000000;stroke-width:1.5;" width="241" x="244" y="559.7676"/><line style="stroke:#181818;stroke-width:0.5;stroke-dasharray:5.0,5.0;" x1="131.5" x2="131.5" y1="36.4883" y2="636.3887"/><line style="stroke:#181818;stroke-width:0.5;stroke-dasharray:5.0,5.0;" x1="309" x2="309" y1="36.4883" y2="636.3887"/><line style="stroke:#181818;stroke-width:0.5;stroke-dasharray:5.0,5.0;" x1="494.5" x2="494.5" y1="36.4883" y2="636.3887"/><line style="stroke:#181818;stroke-width:0.5;stroke-dasharray:5.0,5.0;" x1="644.5" x2="644.5" y1="36.4883" y2="636.3887"/><line style="stroke:#181818;stroke-width:0.5;stroke-dasharray:5.0,5.0;" x1="856" x2="856" y1="36.4883" y2="636.3887"/><line style="stroke:#181818;stroke-width:0.5;stroke-dasharray:5.0,5.0;" x1="996" x2="996" y1="36.4883" y2="636.3887"/><line style="stroke:#181818;stroke-width:0.5;stroke-dasharray:5.0,5.0;" x1="1092" x2="1092" y1="36.4883" y2="636.3887"/><line style="stroke:#181818;stroke-width:0.5;stroke-dasharray:5.0,5.0;" x1="1211" x2="1211" y1="36.4883" y2="636.3887"/><line style="stroke:#181818;stroke-width:0.5;stroke-dasharray:5.0,5.0;" x1="1388" x2="1388" y1="36.4883" y2="636.3887"/><line style="stroke:#181818;stroke-width:0.5;stroke-dasharray:5.0,5.0;" x1="1608" x2="1608" y1="36.4883" y2="636.3887"/><rect fill="#E2E2F0" height="30.4883" rx="2.5" ry="2.5" style="stroke:#181818;stroke-width:0.5;" width="113" x="75.5" y="5"/><text fill="#000000" font-family="sans-serif" font-size="14" lengthAdjust="spacing" textLength="99" x="82.5" y="25.5352">round : Round</text><rect fill="#E2E2F0" height="30.4883" rx="2.5" ry="2.5" style="stroke:#181818;stroke-width:0.5;" width="113" x="75.5" y="635.3887"/><text fill="#000000" font-family="sans-serif" font-size="14" lengthAdjust="spacing" textLength="99" x="82.5" y="655.9238">round : Round</text><rect fill="#E2E2F0" height="30.4883" rx="2.5" ry="2.5" style="stroke:#181818;stroke-width:0.5;" width="110" x="254" y="5"/><text fill="#000000" font-family="sans-serif" font-size="14" lengthAdjust="spacing" textLength="96" x="261" y="25.5352">dealer : Player</text><rect fill="#E2E2F0" height="30.4883" rx="2.5" ry="2.5" style="stroke:#181818;stroke-width:0.5;" width="110" x="254" y="635.3887"/><text fill="#000000" font-family="sans-serif" font-size="14" lengthAdjust="spacing" textLength="96" x="261" y="655.9238">dealer : Player</text><rect fill="#E2E2F0" height="30.4883" rx="2.5" ry="2.5" style="stroke:#181818;stroke-width:0.5;" width="141" x="424.5" y="5"/><text fill="#000000" font-family="sans-serif" font-size="14" lengthAdjust="spacing" textLength="127" x="431.5" y="25.5352">dealerHand : Hand</text><rect fill="#E2E2F0" height="30.4883" rx="2.5" ry="2.5" style="stroke:#181818;stroke-width:0.5;" width="141" x="424.5" y="635.3887"/><text fill="#000000" font-family="sans-serif" font-size="14" lengthAdjust="spacing" textLength="127" x="431.5" y="655.9238">dealerHand : Hand</text><rect fill="#E2E2F0" height="30.4883" rx="2.5" ry="2.5" style="stroke:#181818;stroke-width:0.5;" width="138" x="575.5" y="5"/><text fill="#000000" font-family="sans-serif" font-size="14" lengthAdjust="spacing" textLength="124" x="582.5" y="25.5352">nonDealer : Player</text><rect fill="#E2E2F0" height="30.4883" rx="2.5" ry="2.5" style="stroke:#181818;stroke-width:0.5;" width="138" x="575.5" y="635.3887"/><text fill="#000000" font-family="sans-serif" font-size="14" lengthAdjust="spacing" textLength="124" x="582.5" y="655.9238">nonDealer : Player</text><rect fill="#E2E2F0" height="30.4883" rx="2.5" ry="2.5" style="stroke:#181818;stroke-width:0.5;" width="169" x="772" y="5"/><text fill="#000000" font-family="sans-serif" font-size="14" lengthAdjust="spacing" textLength="155" x="779" y="25.5352">nonDealerHand : Hand</text><rect fill="#E2E2F0" height="30.4883" rx="2.5" ry="2.5" style="stroke:#181818;stroke-width:0.5;" width="169" x="772" y="635.3887"/><text fill="#000000" font-family="sans-serif" font-size="14" lengthAdjust="spacing" textLength="155" x="779" y="655.9238">nonDealerHand : Hand</text><rect fill="#E2E2F0" height="30.4883" rx="2.5" ry="2.5" style="stroke:#181818;stroke-width:0.5;" width="91" x="951" y="5"/><text fill="#000000" font-family="sans-serif" font-size="14" lengthAdjust="spacing" textLength="77" x="958" y="25.5352">deck : Deck</text><rect fill="#E2E2F0" height="30.4883" rx="2.5" ry="2.5" style="stroke:#181818;stroke-width:0.5;" width="91" x="951" y="635.3887"/><text fill="#000000" font-family="sans-serif" font-size="14" lengthAdjust="spacing" textLength="77" x="958" y="655.9238">deck : Deck</text><rect fill="#E2E2F0" height="30.4883" rx="2.5" ry="2.5" style="stroke:#181818;stroke-width:0.5;" width="81" x="1052" y="5"/><text fill="#000000" font-family="sans-serif" font-size="14" lengthAdjust="spacing" textLength="67" x="1059" y="25.5352">crib : Crib</text><rect fill="#E2E2F0" height="30.4883" rx="2.5" ry="2.5" style="stroke:#181818;stroke-width:0.5;" width="81" x="1052" y="635.3887"/><text fill="#000000" font-family="sans-serif" font-size="14" lengthAdjust="spacing" textLength="67" x="1059" y="655.9238">crib : Crib</text><rect fill="#E2E2F0" height="30.4883" rx="2.5" ry="2.5" style="stroke:#181818;stroke-width:0.5;" width="137" x="1143" y="5"/><text fill="#000000" font-family="sans-serif" font-size="14" lengthAdjust="spacing" textLength="123" x="1150" y="25.5352">starterCard : Card</text><rect fill="#E2E2F0" height="30.4883" rx="2.5" ry="2.5" style="stroke:#181818;stroke-width:0.5;" width="137" x="1143" y="635.3887"/><text fill="#000000" font-family="sans-serif" font-size="14" lengthAdjust="spacing" textLength="123" x="1150" y="655.9238">starterCard : Card</text><rect fill="#E2E2F0" height="30.4883" rx="2.5" ry="2.5" style="stroke:#181818;stroke-width:0.5;" width="196" x="1290" y="5"/><text fill="#000000" font-family="sans-serif" font-size="14" lengthAdjust="spacing" textLength="182" x="1297" y="25.5352">dealerOriginalHand : Hand</text><rect fill="#E2E2F0" height="30.4883" rx="2.5" ry="2.5" style="stroke:#181818;stroke-width:0.5;" width="196" x="1290" y="635.3887"/><text fill="#000000" font-family="sans-serif" font-size="14" lengthAdjust="spacing" textLength="182" x="1297" y="655.9238">dealerOriginalHand : Hand</text><rect fill="#E2E2F0" height="30.4883" rx="2.5" ry="2.5" style="stroke:#181818;stroke-width:0.5;" width="224" x="1496" y="5"/><text fill="#000000" font-family="sans-serif" font-size="14" lengthAdjust="spacing" textLength="210" x="1503" y="25.5352">nonDealerOriginalHand : Hand</text><rect fill="#E2E2F0" height="30.4883" rx="2.5" ry="2.5" style="stroke:#181818;stroke-width:0.5;" width="224" x="1496" y="635.3887"/><text fill="#000000" font-family="sans-serif" font-size="14" lengthAdjust="spacing" textLength="210" x="1503" y="655.9238">nonDealerOriginalHand : Hand</text><polygon fill="#181818" points="120,63.7988,130,67.7988,120,71.7988,124,67.7988" style="stroke:#181818;stroke-width:1.0;"/><line style="stroke:#181818;stroke-width:1.0;" x1="0" x2="126" y1="67.7988" y2="67.7988"/><text fill="#000000" font-family="sans-serif" font-size="13" lengthAdjust="spacing" textLength="108" x="7" y="63.0566">executeTheDeal()</text><polygon fill="#181818" points="297,93.1094,307,97.1094,297,101.1094,301,97.1094" style="stroke:#181818;stroke-width:1.0;"/><line style="stroke:#181818;stroke-width:1.0;" x1="132" x2="303" y1="97.1094" y2="97.1094"/><text fill="#000000" font-family="sans-serif" font-size="13" lengthAdjust="spacing" textLength="153" x="139" y="92.3672">starterCard = startDeal()</text><path d="M244,112.1094 L318,112.1094 L318,119.4199 L308,129.4199 L244,129.4199 L244,112.1094 " fill="#EEEEEE" style="stroke:#000000;stroke-width:1.5;"/><rect fill="none" height="75.9316" style="stroke:#000000;stroke-width:1.5;" width="808" x="244" y="112.1094"/><text fill="#000000" font-family="sans-serif" font-size="13" font-weight="bold" lengthAdjust="spacing" textLength="29" x="259" y="125.6777">loop</text><text fill="#000000" font-family="sans-serif" font-size="11" font-weight="bold" lengthAdjust="spacing" textLength="50" x="333" y="124.7441">[6 times]</text><polygon fill="#181818" points="984.5,146.7305,994.5,150.7305,984.5,154.7305,988.5,150.7305" style="stroke:#181818;stroke-width:1.0;"/><line style="stroke:#181818;stroke-width:1.0;" x1="309" x2="990.5" y1="150.7305" y2="150.7305"/><text fill="#000000" font-family="sans-serif" font-size="13" lengthAdjust="spacing" textLength="104" x="316" y="145.9883">card=drawCard()</text><polygon fill="#181818" points="483,176.041,493,180.041,483,184.041,487,180.041" style="stroke:#181818;stroke-width:1.0;"/><line style="stroke:#181818;stroke-width:1.0;" x1="309" x2="489" y1="180.041" y2="180.041"/><text fill="#000000" font-family="sans-serif" font-size="13" lengthAdjust="spacing" textLength="162" x="316" y="175.2988">dealerHand.addCard(card)</text><path d="M565.5,202.041 L639.5,202.041 L639.5,209.3516 L629.5,219.3516 L565.5,219.3516 L565.5,202.041 " fill="#EEEEEE" style="stroke:#000000;stroke-width:1.5;"/><rect fill="none" height="75.9316" style="stroke:#000000;stroke-width:1.5;" width="486.5" x="565.5" y="202.041"/><text fill="#000000" font-family="sans-serif" font-size="13" font-weight="bold" lengthAdjust="spacing" textLength="29" x="580.5" y="215.6094">loop</text><text fill="#000000" font-family="sans-serif" font-size="11" font-weight="bold" lengthAdjust="spacing" textLength="50" x="654.5" y="214.6758">[6 times]</text><polygon fill="#181818" points="984.5,236.6621,994.5,240.6621,984.5,244.6621,988.5,240.6621" style="stroke:#181818;stroke-width:1.0;"/><line style="stroke:#181818;stroke-width:1.0;" x1="644.5" x2="990.5" y1="240.6621" y2="240.6621"/><text fill="#000000" font-family="sans-serif" font-size="13" lengthAdjust="spacing" textLength="104" x="651.5" y="235.9199">card=drawCard()</text><polygon fill="#181818" points="844.5,265.9727,854.5,269.9727,844.5,273.9727,848.5,269.9727" style="stroke:#181818;stroke-width:1.0;"/><line style="stroke:#181818;stroke-width:1.0;" x1="644.5" x2="850.5" y1="269.9727" y2="269.9727"/><text fill="#000000" font-family="sans-serif" font-size="13" lengthAdjust="spacing" textLength="188" x="651.5" y="265.2305">nonDealerHand.addCard(card)</text><path d="M244,291.9727 L318,291.9727 L318,299.2832 L308,309.2832 L244,309.2832 L244,291.9727 " fill="#EEEEEE" style="stroke:#000000;stroke-width:1.5;"/><rect fill="none" height="75.9316" style="stroke:#000000;stroke-width:1.5;" width="899" x="244" y="291.9727"/><text fill="#000000" font-family="sans-serif" font-size="13" font-weight="bold" lengthAdjust="spacing" textLength="29" x="259" y="305.541">loop</text><text fill="#000000" font-family="sans-serif" font-size="11" font-weight="bold" lengthAdjust="spacing" textLength="50" x="333" y="304.6074">[2 times]</text><polygon fill="#181818" points="483,326.5938,493,330.5938,483,334.5938,487,330.5938" style="stroke:#181818;stroke-width:1.0;"/><line style="stroke:#181818;stroke-width:1.0;" x1="309" x2="489" y1="330.5938" y2="330.5938"/><text fill="#000000" font-family="sans-serif" font-size="13" lengthAdjust="spacing" textLength="139" x="316" y="325.8516">card=selectCard(num)</text><polygon fill="#181818" points="1080.5,355.9043,1090.5,359.9043,1080.5,363.9043,1084.5,359.9043" style="stroke:#181818;stroke-width:1.0;"/><line style="stroke:#181818;stroke-width:1.0;" x1="309" x2="1086.5" y1="359.9043" y2="359.9043"/><text fill="#000000" font-family="sans-serif" font-size="13" lengthAdjust="spacing" textLength="128" x="316" y="355.1621">crib.addToCrib(card)</text><path d="M565.5,381.9043 L639.5,381.9043 L639.5,389.2148 L629.5,399.2148 L565.5,399.2148 L565.5,381.9043 " fill="#EEEEEE" style="stroke:#000000;stroke-width:1.5;"/><rect fill="none" height="75.9316" style="stroke:#000000;stroke-width:1.5;" width="577.5" x="565.5" y="381.9043"/><text fill="#000000" font-family="sans-serif" font-size="13" font-weight="bold" lengthAdjust="spacing" textLength="29" x="580.5" y="395.4727">loop</text><text fill="#000000" font-family="sans-serif" font-size="11" font-weight="bold" lengthAdjust="spacing" textLength="50" x="654.5" y="394.5391">[2 times]</text><polygon fill="#181818" points="844.5,416.5254,854.5,420.5254,844.5,424.5254,848.5,420.5254" style="stroke:#181818;stroke-width:1.0;"/><line style="stroke:#181818;stroke-width:1.0;" x1="644.5" x2="850.5" y1="420.5254" y2="420.5254"/><text fill="#000000" font-family="sans-serif" font-size="13" lengthAdjust="spacing" textLength="139" x="651.5" y="415.7832">card=selectCard(num)</text><polygon fill="#181818" points="1080.5,445.8359,1090.5,449.8359,1080.5,453.8359,1084.5,449.8359" style="stroke:#181818;stroke-width:1.0;"/><line style="stroke:#181818;stroke-width:1.0;" x1="644.5" x2="1086.5" y1="449.8359" y2="449.8359"/><text fill="#000000" font-family="sans-serif" font-size="13" lengthAdjust="spacing" textLength="128" x="651.5" y="445.0938">crib.addToCrib(card)</text><polygon fill="#181818" points="1376,482.1465,1386,486.1465,1376,490.1465,1380,486.1465" style="stroke:#181818;stroke-width:1.0;"/><line style="stroke:#181818;stroke-width:1.0;" x1="495" x2="1382" y1="486.1465" y2="486.1465"/><text fill="#000000" font-family="sans-serif" font-size="13" lengthAdjust="spacing" textLength="202" x="502" y="481.4043">dealerOriginalHand=dealerHand</text><polygon fill="#181818" points="1596,511.457,1606,515.457,1596,519.457,1600,515.457" style="stroke:#181818;stroke-width:1.0;"/><line style="stroke:#181818;stroke-width:1.0;" x1="856.5" x2="1602" y1="515.457" y2="515.457"/><text fill="#000000" font-family="sans-serif" font-size="13" lengthAdjust="spacing" textLength="254" x="863.5" y="510.7148">nonDealerOriginalHand=nonDealerHand</text><polygon fill="#181818" points="984.5,540.7676,994.5,544.7676,984.5,548.7676,988.5,544.7676" style="stroke:#181818;stroke-width:1.0;"/><line style="stroke:#181818;stroke-width:1.0;" x1="309" x2="990.5" y1="544.7676" y2="544.7676"/><text fill="#000000" font-family="sans-serif" font-size="13" lengthAdjust="spacing" textLength="170" x="316" y="540.0254">starterCard=deck.cut(num)</text><path d="M244,559.7676 L306,559.7676 L306,567.0781 L296,577.0781 L244,577.0781 L244,559.7676 " fill="#EEEEEE" style="stroke:#000000;stroke-width:1.5;"/><rect fill="none" height="59.6211" style="stroke:#000000;stroke-width:1.5;" width="241" x="244" y="559.7676"/><text fill="#000000" font-family="sans-serif" font-size="13" font-weight="bold" lengthAdjust="spacing" textLength="17" x="259" y="573.3359">alt</text><text fill="#000000" font-family="sans-serif" font-size="11" font-weight="bold" lengthAdjust="spacing" textLength="159" x="321" y="572.4023">[if ( starterCard.rank==11 )]</text><line style="stroke:#181818;stroke-width:1.0;" x1="309" x2="351" y1="598.3887" y2="598.3887"/><line style="stroke:#181818;stroke-width:1.0;" x1="351" x2="351" y1="598.3887" y2="611.3887"/><line style="stroke:#181818;stroke-width:1.0;" x1="310" x2="351" y1="611.3887" y2="611.3887"/><polygon fill="#181818" points="320,607.3887,310,611.3887,320,615.3887,316,611.3887" style="stroke:#181818;stroke-width:1.0;"/><text fill="#000000" font-family="sans-serif" font-size="13" lengthAdjust="spacing" textLength="135" x="316" y="593.6465">checkPointsTheDeal()</text><!--MD5=[a704d86549fed105168c2f9706152e18]
@startuml the_deal

[-> "round : Round": executeTheDeal()


participant "round : Round"
participant "dealer : Player"
participant "dealerHand : Hand"
participant "nonDealer : Player"
participant "nonDealerHand : Hand"
participant "deck : Deck"
participant "crib : Crib"
participant "starterCard : Card"
participant "dealerOriginalHand : Hand"
participant "nonDealerOriginalHand : Hand"

"round : Round" -> "dealer : Player": starterCard = startDeal()


loop 6 times

"dealer : Player" -> "deck : Deck": card=drawCard()
"dealer : Player" -> "dealerHand : Hand": dealerHand.addCard(card)

end 



loop 6 times

"nonDealer : Player" -> "deck : Deck": card=drawCard()
"nonDealer : Player" -> "nonDealerHand : Hand": nonDealerHand.addCard(card)

end 



loop 2 times
"dealer : Player" -> "dealerHand : Hand": card=selectCard(num)
"dealer : Player" -> "crib : Crib": crib.addToCrib(card)
end

loop 2 times
"nonDealer : Player" -> "nonDealerHand : Hand": card=selectCard(num)
"nonDealer : Player" -> "crib : Crib": crib.addToCrib(card)
end

"dealerHand : Hand" -> "dealerOriginalHand : Hand": dealerOriginalHand=dealerHand
"nonDealerHand : Hand" -> "nonDealerOriginalHand : Hand": nonDealerOriginalHand=nonDealerHand


"dealer : Player" -> "deck : Deck": starterCard=deck.cut(num)

alt if ( starterCard.rank==11 )
"dealer : Player" -> "dealer : Player": checkPointsTheDeal()

end



@enduml

PlantUML version 1.2022.10(Fri Oct 21 11:50:02 CDT 2022)
(GPL source distribution)
Java Runtime: OpenJDK Runtime Environment
JVM: OpenJDK 64-Bit Server VM
Default Encoding: UTF-8
Language: en
Country: US
--></g></svg>