<?xml version="1.0" encoding="UTF-8" standalone="no"?><svg xmlns="http://www.w3.org/2000/svg" xmlns:xlink="http://www.w3.org/1999/xlink" contentStyleType="text/css" height="518px" preserveAspectRatio="none" style="width:1425px;height:518px;background:#FFFFFF;" version="1.1" viewBox="0 0 1425 518" width="1425px" zoomAndPan="magnify"><defs/><g><rect fill="none" height="46.6211" style="stroke:#000000;stroke-width:1.5;" width="531" x="193.5" y="112.1094"/><rect fill="none" height="46.6211" style="stroke:#000000;stroke-width:1.5;" width="477" x="714.5" y="244.3516"/><rect fill="none" height="46.6211" style="stroke:#000000;stroke-width:1.5;" width="568" x="714.5" y="376.5938"/><line style="stroke:#181818;stroke-width:0.5;stroke-dasharray:5.0,5.0;" x1="136.5" x2="136.5" y1="36.4883" y2="482.5254"/><line style="stroke:#181818;stroke-width:0.5;stroke-dasharray:5.0,5.0;" x1="272.5" x2="272.5" y1="36.4883" y2="482.5254"/><line style="stroke:#181818;stroke-width:0.5;stroke-dasharray:5.0,5.0;" x1="602.5" x2="602.5" y1="36.4883" y2="482.5254"/><line style="stroke:#181818;stroke-width:0.5;stroke-dasharray:5.0,5.0;" x1="779.5" x2="779.5" y1="36.4883" y2="482.5254"/><line style="stroke:#181818;stroke-width:0.5;stroke-dasharray:5.0,5.0;" x1="1083.5" x2="1083.5" y1="36.4883" y2="482.5254"/><line style="stroke:#181818;stroke-width:0.5;stroke-dasharray:5.0,5.0;" x1="1231.5" x2="1231.5" y1="36.4883" y2="482.5254"/><line style="stroke:#181818;stroke-width:0.5;stroke-dasharray:5.0,5.0;" x1="1350.5" x2="1350.5" y1="36.4883" y2="482.5254"/><rect fill="#E2E2F0" height="30.4883" rx="2.5" ry="2.5" style="stroke:#181818;stroke-width:0.5;" width="113" x="80.5" y="5"/><text fill="#000000" font-family="sans-serif" font-size="14" lengthAdjust="spacing" textLength="99" x="87.5" y="25.5352">round : Round</text><rect fill="#E2E2F0" height="30.4883" rx="2.5" ry="2.5" style="stroke:#181818;stroke-width:0.5;" width="113" x="80.5" y="481.5254"/><text fill="#000000" font-family="sans-serif" font-size="14" lengthAdjust="spacing" textLength="99" x="87.5" y="502.0605">round : Round</text><rect fill="#E2E2F0" height="30.4883" rx="2.5" ry="2.5" style="stroke:#181818;stroke-width:0.5;" width="138" x="203.5" y="5"/><text fill="#000000" font-family="sans-serif" font-size="14" lengthAdjust="spacing" textLength="124" x="210.5" y="25.5352">nonDealer : Player</text><rect fill="#E2E2F0" height="30.4883" rx="2.5" ry="2.5" style="stroke:#181818;stroke-width:0.5;" width="138" x="203.5" y="481.5254"/><text fill="#000000" font-family="sans-serif" font-size="14" lengthAdjust="spacing" textLength="124" x="210.5" y="502.0605">nonDealer : Player</text><rect fill="#E2E2F0" height="30.4883" rx="2.5" ry="2.5" style="stroke:#181818;stroke-width:0.5;" width="224" x="490.5" y="5"/><text fill="#000000" font-family="sans-serif" font-size="14" lengthAdjust="spacing" textLength="210" x="497.5" y="25.5352">nonDealerOriginalHand : Hand</text><rect fill="#E2E2F0" height="30.4883" rx="2.5" ry="2.5" style="stroke:#181818;stroke-width:0.5;" width="224" x="490.5" y="481.5254"/><text fill="#000000" font-family="sans-serif" font-size="14" lengthAdjust="spacing" textLength="210" x="497.5" y="502.0605">nonDealerOriginalHand : Hand</text><rect fill="#E2E2F0" height="30.4883" rx="2.5" ry="2.5" style="stroke:#181818;stroke-width:0.5;" width="110" x="724.5" y="5"/><text fill="#000000" font-family="sans-serif" font-size="14" lengthAdjust="spacing" textLength="96" x="731.5" y="25.5352">dealer : Player</text><rect fill="#E2E2F0" height="30.4883" rx="2.5" ry="2.5" style="stroke:#181818;stroke-width:0.5;" width="110" x="724.5" y="481.5254"/><text fill="#000000" font-family="sans-serif" font-size="14" lengthAdjust="spacing" textLength="96" x="731.5" y="502.0605">dealer : Player</text><rect fill="#E2E2F0" height="30.4883" rx="2.5" ry="2.5" style="stroke:#181818;stroke-width:0.5;" width="196" x="985.5" y="5"/><text fill="#000000" font-family="sans-serif" font-size="14" lengthAdjust="spacing" textLength="182" x="992.5" y="25.5352">dealerOriginalHand : Hand</text><rect fill="#E2E2F0" height="30.4883" rx="2.5" ry="2.5" style="stroke:#181818;stroke-width:0.5;" width="196" x="985.5" y="481.5254"/><text fill="#000000" font-family="sans-serif" font-size="14" lengthAdjust="spacing" textLength="182" x="992.5" y="502.0605">dealerOriginalHand : Hand</text><rect fill="#E2E2F0" height="30.4883" rx="2.5" ry="2.5" style="stroke:#181818;stroke-width:0.5;" width="81" x="1191.5" y="5"/><text fill="#000000" font-family="sans-serif" font-size="14" lengthAdjust="spacing" textLength="67" x="1198.5" y="25.5352">crib : Crib</text><rect fill="#E2E2F0" height="30.4883" rx="2.5" ry="2.5" style="stroke:#181818;stroke-width:0.5;" width="81" x="1191.5" y="481.5254"/><text fill="#000000" font-family="sans-serif" font-size="14" lengthAdjust="spacing" textLength="67" x="1198.5" y="502.0605">crib : Crib</text><rect fill="#E2E2F0" height="30.4883" rx="2.5" ry="2.5" style="stroke:#181818;stroke-width:0.5;" width="137" x="1282.5" y="5"/><text fill="#000000" font-family="sans-serif" font-size="14" lengthAdjust="spacing" textLength="123" x="1289.5" y="25.5352">starterCard : Card</text><rect fill="#E2E2F0" height="30.4883" rx="2.5" ry="2.5" style="stroke:#181818;stroke-width:0.5;" width="137" x="1282.5" y="481.5254"/><text fill="#000000" font-family="sans-serif" font-size="14" lengthAdjust="spacing" textLength="123" x="1289.5" y="502.0605">starterCard : Card</text><polygon fill="#181818" points="125,63.7988,135,67.7988,125,71.7988,129,67.7988" style="stroke:#181818;stroke-width:1.0;"/><line style="stroke:#181818;stroke-width:1.0;" x1="0" x2="131" y1="67.7988" y2="67.7988"/><text fill="#000000" font-family="sans-serif" font-size="13" lengthAdjust="spacing" textLength="113" x="7" y="63.0566">executeTheShow()</text><polygon fill="#181818" points="260.5,93.1094,270.5,97.1094,260.5,101.1094,264.5,97.1094" style="stroke:#181818;stroke-width:1.0;"/><line style="stroke:#181818;stroke-width:1.0;" x1="137" x2="266.5" y1="97.1094" y2="97.1094"/><text fill="#000000" font-family="sans-serif" font-size="13" lengthAdjust="spacing" textLength="70" x="144" y="92.3672">startShow()</text><path d="M193.5,112.1094 L267.5,112.1094 L267.5,119.4199 L257.5,129.4199 L193.5,129.4199 L193.5,112.1094 " fill="#EEEEEE" style="stroke:#000000;stroke-width:1.5;"/><rect fill="none" height="46.6211" style="stroke:#000000;stroke-width:1.5;" width="531" x="193.5" y="112.1094"/><text fill="#000000" font-family="sans-serif" font-size="13" font-weight="bold" lengthAdjust="spacing" textLength="29" x="208.5" y="125.6777">loop</text><text fill="#000000" font-family="sans-serif" font-size="11" font-weight="bold" lengthAdjust="spacing" textLength="65" x="282.5" y="124.7441">[while n&lt;4]</text><polygon fill="#181818" points="590.5,146.7305,600.5,150.7305,590.5,154.7305,594.5,150.7305" style="stroke:#181818;stroke-width:1.0;"/><line style="stroke:#181818;stroke-width:1.0;" x1="272.5" x2="596.5" y1="150.7305" y2="150.7305"/><text fill="#000000" font-family="sans-serif" font-size="13" lengthAdjust="spacing" textLength="306" x="279.5" y="145.9883">hand.at(n)=nonDealerOriginalHand.selectCard(n)</text><polygon fill="#181818" points="1339,183.041,1349,187.041,1339,191.041,1343,187.041" style="stroke:#181818;stroke-width:1.0;"/><line style="stroke:#181818;stroke-width:1.0;" x1="272.5" x2="1345" y1="187.041" y2="187.041"/><text fill="#000000" font-family="sans-serif" font-size="13" lengthAdjust="spacing" textLength="136" x="279.5" y="182.2988">hand.add(starterCard)</text><line style="stroke:#181818;stroke-width:1.0;" x1="272.5" x2="314.5" y1="216.3516" y2="216.3516"/><line style="stroke:#181818;stroke-width:1.0;" x1="314.5" x2="314.5" y1="216.3516" y2="229.3516"/><line style="stroke:#181818;stroke-width:1.0;" x1="273.5" x2="314.5" y1="229.3516" y2="229.3516"/><polygon fill="#181818" points="283.5,225.3516,273.5,229.3516,283.5,233.3516,279.5,229.3516" style="stroke:#181818;stroke-width:1.0;"/><text fill="#000000" font-family="sans-serif" font-size="13" lengthAdjust="spacing" textLength="144" x="279.5" y="211.6094">checkPointsTheShow();</text><path d="M714.5,244.3516 L788.5,244.3516 L788.5,251.6621 L778.5,261.6621 L714.5,261.6621 L714.5,244.3516 " fill="#EEEEEE" style="stroke:#000000;stroke-width:1.5;"/><rect fill="none" height="46.6211" style="stroke:#000000;stroke-width:1.5;" width="477" x="714.5" y="244.3516"/><text fill="#000000" font-family="sans-serif" font-size="13" font-weight="bold" lengthAdjust="spacing" textLength="29" x="729.5" y="257.9199">loop</text><text fill="#000000" font-family="sans-serif" font-size="11" font-weight="bold" lengthAdjust="spacing" textLength="76" x="803.5" y="256.9863">[4 while n&lt;4]</text><polygon fill="#181818" points="1071.5,278.9727,1081.5,282.9727,1071.5,286.9727,1075.5,282.9727" style="stroke:#181818;stroke-width:1.0;"/><line style="stroke:#181818;stroke-width:1.0;" x1="779.5" x2="1077.5" y1="282.9727" y2="282.9727"/><text fill="#000000" font-family="sans-serif" font-size="13" lengthAdjust="spacing" textLength="280" x="786.5" y="278.2305">hand.at(n)=dealerOriginalHand.selectCard(n)</text><polygon fill="#181818" points="1339,315.2832,1349,319.2832,1339,323.2832,1343,319.2832" style="stroke:#181818;stroke-width:1.0;"/><line style="stroke:#181818;stroke-width:1.0;" x1="779.5" x2="1345" y1="319.2832" y2="319.2832"/><text fill="#000000" font-family="sans-serif" font-size="13" lengthAdjust="spacing" textLength="136" x="786.5" y="314.541">hand.add(starterCard)</text><line style="stroke:#181818;stroke-width:1.0;" x1="779.5" x2="821.5" y1="348.5938" y2="348.5938"/><line style="stroke:#181818;stroke-width:1.0;" x1="821.5" x2="821.5" y1="348.5938" y2="361.5938"/><line style="stroke:#181818;stroke-width:1.0;" x1="780.5" x2="821.5" y1="361.5938" y2="361.5938"/><polygon fill="#181818" points="790.5,357.5938,780.5,361.5938,790.5,365.5938,786.5,361.5938" style="stroke:#181818;stroke-width:1.0;"/><text fill="#000000" font-family="sans-serif" font-size="13" lengthAdjust="spacing" textLength="144" x="786.5" y="343.8516">checkPointsTheShow();</text><path d="M714.5,376.5938 L788.5,376.5938 L788.5,383.9043 L778.5,393.9043 L714.5,393.9043 L714.5,376.5938 " fill="#EEEEEE" style="stroke:#000000;stroke-width:1.5;"/><rect fill="none" height="46.6211" style="stroke:#000000;stroke-width:1.5;" width="568" x="714.5" y="376.5938"/><text fill="#000000" font-family="sans-serif" font-size="13" font-weight="bold" lengthAdjust="spacing" textLength="29" x="729.5" y="390.1621">loop</text><text fill="#000000" font-family="sans-serif" font-size="11" font-weight="bold" lengthAdjust="spacing" textLength="76" x="803.5" y="389.2285">[4 while n&lt;4]</text><polygon fill="#181818" points="1220,411.2148,1230,415.2148,1220,419.2148,1224,415.2148" style="stroke:#181818;stroke-width:1.0;"/><line style="stroke:#181818;stroke-width:1.0;" x1="779.5" x2="1226" y1="415.2148" y2="415.2148"/><text fill="#000000" font-family="sans-serif" font-size="13" lengthAdjust="spacing" textLength="224" x="786.5" y="410.4727">hand.at(n)=crib.getCardStack().at(n)</text><line style="stroke:#181818;stroke-width:1.0;" x1="779.5" x2="821.5" y1="451.5254" y2="451.5254"/><line style="stroke:#181818;stroke-width:1.0;" x1="821.5" x2="821.5" y1="451.5254" y2="464.5254"/><line style="stroke:#181818;stroke-width:1.0;" x1="780.5" x2="821.5" y1="464.5254" y2="464.5254"/><polygon fill="#181818" points="790.5,460.5254,780.5,464.5254,790.5,468.5254,786.5,464.5254" style="stroke:#181818;stroke-width:1.0;"/><text fill="#000000" font-family="sans-serif" font-size="13" lengthAdjust="spacing" textLength="170" x="786.5" y="446.7832">checkPointsTheShowCrib();</text><!--MD5=[6b8a3264f0f90016cc0fe0cc16c56399]
@startuml the_show

[-> "round : Round": executeTheShow()


participant "round : Round"
participant "nonDealer : Player"
participant "nonDealerOriginalHand : Hand"
participant "dealer : Player"
participant "dealerOriginalHand : Hand"
participant "crib : Crib"
participant "starterCard : Card"

"round : Round" -> "nonDealer : Player": startShow()

loop while n<4
"nonDealer : Player" -> "nonDealerOriginalHand : Hand": hand.at(n)=nonDealerOriginalHand.selectCard(n)
end
"nonDealer : Player" -> "starterCard : Card": hand.add(starterCard)
"nonDealer : Player" -> "nonDealer : Player": checkPointsTheShow();

loop 4 while n<4
"dealer : Player" -> "dealerOriginalHand : Hand": hand.at(n)=dealerOriginalHand.selectCard(n)
end
"dealer : Player" -> "starterCard : Card": hand.add(starterCard)
"dealer : Player" -> "dealer : Player": checkPointsTheShow();

loop 4 while n<4
"dealer : Player" -> "crib : Crib": hand.at(n)=crib.getCardStack().at(n)
end
"dealer : Player" -> "dealer : Player": checkPointsTheShowCrib();





@enduml

PlantUML version 1.2022.10(Fri Oct 21 11:50:02 CDT 2022)
(GPL source distribution)
Java Runtime: OpenJDK Runtime Environment
JVM: OpenJDK 64-Bit Server VM
Default Encoding: UTF-8
Language: en
Country: US
--></g></svg>